STARTFONT 2.3
FONT -FontForge-Fontdiner Swanky-Book-R-Normal--20-200-72-72-P-126-ISO10646-1
SIZE 20 72 72  2
FONTBOUNDINGBOX 28 31 -5 -10
COMMENT "Generated by fontforge, http://fontforge.sourceforge.net"
COMMENT "Copyright (c) 2010 by Font Diner, Inc. All rights reserved."
STARTPROPERTIES 40
FOUNDRY "FontForge"
FAMILY_NAME "Fontdiner Swanky"
WEIGHT_NAME "Book"
SLANT "R"
SETWIDTH_NAME "Normal"
ADD_STYLE_NAME ""
PIXEL_SIZE 20
POINT_SIZE 200
RESOLUTION_X 72
RESOLUTION_Y 72
SPACING "P"
AVERAGE_WIDTH 126
CHARSET_REGISTRY "ISO10646"
CHARSET_ENCODING "1"
FONTNAME_REGISTRY ""
CHARSET_COLLECTIONS "ISO10646-1"
BITS_PER_PIXEL 2
FONT_NAME "FontdinerSwanky-Regular"
FACE_NAME "Fontdiner Swanky Regular"
COPYRIGHT "Copyright (c) 2010 by Font Diner, Inc. All rights reserved."
FONT_VERSION "1.001"
FONT_ASCENT 16
FONT_DESCENT 4
UNDERLINE_POSITION -2
UNDERLINE_THICKNESS 1
X_HEIGHT 10
CAP_HEIGHT 12
RAW_ASCENT 799
RAW_DESCENT 200
NORM_SPACE 6
RELATIVE_WEIGHT 40
RELATIVE_SETWIDTH 50
SUPERSCRIPT_X 0
SUPERSCRIPT_Y 9
SUPERSCRIPT_SIZE 12
SUBSCRIPT_X 0
SUBSCRIPT_Y 2
SUBSCRIPT_SIZE 12
AVG_LOWERCASE_WIDTH 125
AVG_UPPERCASE_WIDTH 155
ENDPROPERTIES
CHARS 231
STARTCHAR space
ENCODING 32
SWIDTH 320 0
DWIDTH 6 0
BBX 1 1 0 0
BITMAP
00
ENDCHAR
STARTCHAR exclam
ENCODING 33
SWIDTH 305 0
DWIDTH 6 0
BBX 6 17 0 0
BITMAP
0EA0
0FF0
0FE0
1FE0
1FD0
1FD0
1FC0
1F80
1F80
1F40
1F40
2F00
2F00
0500
6900
BF00
7E00
ENDCHAR
STARTCHAR quotedbl
ENCODING 34
SWIDTH 369 0
DWIDTH 7 0
BBX 7 6 0 8
BITMAP
5454
BDFC
BDFC
BCBC
7CBC
7CB8
ENDCHAR
STARTCHAR numbersign
ENCODING 35
SWIDTH 702 0
DWIDTH 14 0
BBX 14 14 0 0
BITMAP
01A02800
02F03C00
02F03C00
7FFFFEA0
7FFFFFE0
67E5BD40
03D0B800
03D0B800
6BEAFE90
BFFFFFD0
ABEAFFC0
07C0F400
07C0F400
01405000
ENDCHAR
STARTCHAR dollar
ENCODING 36
SWIDTH 545 0
DWIDTH 11 0
BBX 11 18 0 -3
BITMAP
01A400
01F400
01F000
0BF920
3FAFB0
BC06F0
BD00B0
BFE420
2FFE40
0BFFE0
506FF4
7406F8
7E01F8
BFEFF0
92FE40
40B800
00F800
005400
ENDCHAR
STARTCHAR percent
ENCODING 37
SWIDTH 657 0
DWIDTH 13 0
BBX 14 17 0 -1
BITMAP
00001000
1A40BD00
7FE0FC00
B4F1F800
B4F2F000
7FE3E000
1A4BD000
000F8000
001F4000
002F0000
003D0400
00BC7F80
00F9F7D0
01F1E2E0
02E1F7D0
03D07F80
02800000
ENDCHAR
STARTCHAR ampersand
ENCODING 38
SWIDTH 668 0
DWIDTH 13 0
BBX 16 17 0 -2
BITMAP
01BE0000
0BDBC000
1F43D000
1F42E000
0FC3D000
0BEB4000
02FD0000
02FD0800
0BBF4A00
2F2FCB40
7E0BEFC0
7F03FC01
7F96FEB8
2FFFFFD0
0BF93E00
0000B400
00008000
ENDCHAR
STARTCHAR quotesingle
ENCODING 39
SWIDTH 177 0
DWIDTH 4 0
BBX 4 6 0 8
BITMAP
54
BD
BD
BC
7C
78
ENDCHAR
STARTCHAR parenleft
ENCODING 40
SWIDTH 384 0
DWIDTH 8 0
BBX 7 20 1 -3
BITMAP
0014
01E0
0BC0
1F40
3E00
7E00
BD00
FC00
FC00
FC00
FC00
FC00
BD00
BE00
7E00
2F40
1F80
07D0
01F0
0014
ENDCHAR
STARTCHAR parenright
ENCODING 41
SWIDTH 375 0
DWIDTH 8 0
BBX 7 20 0 -3
BITMAP
5000
3900
1F40
0BD0
03E0
02F0
02F4
01F8
01F8
01F8
01F8
01F8
02F4
02F4
03F0
0BE0
0FC0
2F00
7800
9000
ENDCHAR
STARTCHAR asterisk
ENCODING 42
SWIDTH 640 0
DWIDTH 13 0
BBX 13 13 0 0
BITMAP
01414000
0FC2E000
0BD3F800
02F7E000
50FFC000
BFFFAB80
BFFFFF80
BEFFAB80
01FFC000
03EBE000
0BD7F800
0B83D000
01410000
ENDCHAR
STARTCHAR plus
ENCODING 43
SWIDTH 607 0
DWIDTH 12 0
BBX 12 13 0 0
BITMAP
005500
00BE00
00BE00
007E00
55BE00
BFFFFF
BFFFFF
AABEA5
007D00
007D00
007D00
007D00
001400
ENDCHAR
STARTCHAR comma
ENCODING 44
SWIDTH 226 0
DWIDTH 5 0
BBX 5 6 0 -4
BITMAP
1400
7F00
BF40
6F00
1E00
2800
ENDCHAR
STARTCHAR hyphen
ENCODING 45
SWIDTH 549 0
DWIDTH 11 0
BBX 9 4 1 5
BITMAP
6A5540
BFFF80
BFFF80
AAAA40
ENDCHAR
STARTCHAR period
ENCODING 46
SWIDTH 226 0
DWIDTH 5 0
BBX 5 4 0 -2
BITMAP
1900
BF00
BF40
2900
ENDCHAR
STARTCHAR slash
ENCODING 47
SWIDTH 600 0
DWIDTH 12 0
BBX 14 20 -1 -2
BITMAP
00000400
00000F40
00002FD0
00007F80
0000BF40
0001FE00
0003FC00
000BF400
000FE000
002FC000
007F8000
00BF0000
01FD0000
03F80000
0BF00000
0FD00000
2F800000
7F400000
2E000000
04000000
ENDCHAR
STARTCHAR zero
ENCODING 48
SWIDTH 740 0
DWIDTH 15 0
BBX 15 13 0 0
BITMAP
001A9000
02FFFE00
1FF97F80
2FC00FE0
7F4007F0
BF0003F4
BE0003F4
BF0003F4
7F0007F0
3F800BE0
1FE06FC0
07FFFE00
006FE400
ENDCHAR
STARTCHAR one
ENCODING 49
SWIDTH 503 0
DWIDTH 10 0
BBX 12 16 -1 -1
BITMAP
000140
05BF40
6FFF40
01BF40
007F40
007F40
003F40
003F40
003F00
003F00
003F00
003F00
003F00
003F40
06FFE4
1AAAA9
ENDCHAR
STARTCHAR two
ENCODING 50
SWIDTH 638 0
DWIDTH 13 0
BBX 12 17 0 -1
BITMAP
400000
601500
35FFE4
3FFBFD
3F80BF
2E003F
2C003F
18007F
1401FD
001BF5
00BF82
07F807
1FD00A
7F401E
BFFFFE
FFFFFE
5556A9
ENDCHAR
STARTCHAR three
ENCODING 51
SWIDTH 620 0
DWIDTH 12 0
BBX 13 17 -1 -2
BITMAP
20000000
246FE000
1EFFFD00
1FD0BF00
0F002F40
09002F80
04002F40
0026FE00
003FFE00
0016FF40
08003FC0
0D002FC0
1F403F80
1FD5BF40
2AFFFD00
206A9000
40000000
ENDCHAR
STARTCHAR four
ENCODING 52
SWIDTH 606 0
DWIDTH 12 0
BBX 13 17 -1 -2
BITMAP
00002400
00007400
0001F400
0003F400
000FF000
002FF000
00BFF000
01F7F040
07D3F180
1F43F280
3FFFFF80
AAABFB80
0002F240
0002F040
0003F000
006FFD00
01555540
ENDCHAR
STARTCHAR five
ENCODING 53
SWIDTH 610 0
DWIDTH 12 0
BBX 12 16 0 -1
BITMAP
000169
56BFFD
FFFFFC
BE541C
BD000C
7D5504
7FFFD0
3FAFF8
2402FD
0000FE
1000FE
3001FD
7D02FC
7FFFF8
A7FFE0
406900
ENDCHAR
STARTCHAR six
ENCODING 54
SWIDTH 619 0
DWIDTH 12 0
BBX 13 18 0 -2
BITMAP
00000400
00001800
00BE2800
07FFFC00
0FFAFC00
2FC06C00
3F400900
7FFFE000
BFEAFD00
FF80BE00
FE003F00
FE002F40
FD002F40
BE003F00
7F007E00
2FD6FC00
07FFE000
00550000
ENDCHAR
STARTCHAR seven
ENCODING 55
SWIDTH 598 0
DWIDTH 12 0
BBX 13 16 0 -1
BITMAP
54000000
BFFFFE80
7FFFFF80
3D15FF00
2C01FE00
1801FD00
1402FC00
0003F800
0007F000
0007E000
000BD000
000FC000
001F8000
002F0000
01FFD000
0ABFF900
ENDCHAR
STARTCHAR eight
ENCODING 56
SWIDTH 642 0
DWIDTH 13 0
BBX 13 16 0 -2
BITMAP
01FF9000
0BFBF800
2F80BE00
3F407F00
3F407F00
3F407F00
1FD1FD00
0FFFFC00
3FFBFE00
BF80BF80
FF003FC0
FF003FC0
BF007F80
7FD1FF40
1FFFFD00
01AA9000
ENDCHAR
STARTCHAR nine
ENCODING 57
SWIDTH 610 0
DWIDTH 12 0
BBX 12 17 0 -2
BITMAP
001400
07FF90
2FE7F4
7F00FC
BE007E
FD007F
FE007F
BF00BF
7F86FF
2FFFFF
06FFBE
2000FD
2D02FC
2FABF4
1FFFD0
1C6A40
180000
ENDCHAR
STARTCHAR colon
ENCODING 58
SWIDTH 223 0
DWIDTH 4 0
BBX 4 9 0 -2
BITMAP
69
FF
FF
29
00
28
BF
FF
69
ENDCHAR
STARTCHAR semicolon
ENCODING 59
SWIDTH 228 0
DWIDTH 5 0
BBX 4 11 0 -4
BITMAP
29
BF
BF
29
00
14
BE
FF
6F
1D
24
ENDCHAR
STARTCHAR less
ENCODING 60
SWIDTH 563 0
DWIDTH 11 0
BBX 12 13 0 0
BITMAP
00001C
0000BD
000BFE
007FFD
06FFE0
2FFE00
BFE000
1FF000
02FD00
002F40
0007E0
0000BC
000018
ENDCHAR
STARTCHAR equal
ENCODING 61
SWIDTH 531 0
DWIDTH 11 0
BBX 11 9 0 1
BITMAP
540000
FFFFF4
FFFFF4
FFFFA4
000000
ABFFF4
FFFFF4
FFFFF4
000150
ENDCHAR
STARTCHAR greater
ENCODING 62
SWIDTH 576 0
DWIDTH 12 0
BBX 12 13 0 0
BITMAP
740000
BE0000
BFD000
BFFD00
0BFF80
00BFF8
001BFD
001FE4
007F40
02F800
0BD000
3E0000
240000
ENDCHAR
STARTCHAR question
ENCODING 63
SWIDTH 592 0
DWIDTH 12 0
BBX 12 18 0 -1
BITMAP
200000
3AAA40
7EBFE0
7406F8
9000FD
4000BE
0000BE
0000FE
0257FC
07FFF4
07F940
0BD000
0BC000
014000
2A0000
BF8000
7F8000
1A0000
ENDCHAR
STARTCHAR at
ENCODING 64
SWIDTH 792 0
DWIDTH 16 0
BBX 17 15 0 -1
BITMAP
0005540000
00BFFF4000
07F507E000
1F8590BC00
3E1EBD3E00
BC3C2E2F00
F87C1F1F40
F8155F1F40
F87EBE1F40
F8B82E1F40
BCBD6E2F00
3E2FFE3D00
1F801FB800
07F9069000
005AA40000
ENDCHAR
STARTCHAR A
ENCODING 65
SWIDTH 788 0
DWIDTH 16 0
BBX 22 19 -3 -5
BITMAP
001550000000
001BFF000000
0001BF800000
00002FC00000
00003FE00000
0000BBF00000
0000E3F80000
0002D2FC0000
000380FE0000
000BFEFF0000
001FFFFF8000
002D002FC000
0078001FE000
06F8000FF000
6FFF4007F800
00155003FF90
0000000BFE50
0000002E5000
000000100000
ENDCHAR
STARTCHAR B
ENCODING 66
SWIDTH 774 0
DWIDTH 15 0
BBX 18 17 -2 -3
BITMAP
5550000000
2FFFFFA400
07FFFFFE40
00FE006FC0
00FE000FD0
00FE000FD0
00BE007F80
00BFFFFE00
00BFFFF400
00BF56FE00
007F007F80
007F003FC0
007F00BF80
007F5BFE00
01FFFFE400
1BFA950000
1400000000
ENDCHAR
STARTCHAR C
ENCODING 67
SWIDTH 766 0
DWIDTH 15 0
BBX 15 16 0 -1
BITMAP
00000004
001AA408
01FFFF68
0BFE5BF8
1FE001F4
3FC00074
7F400020
BF400010
BF000000
BF400000
7F400010
3F800020
1FD00070
0BF901F4
02FFFFE8
006FFE08
ENDCHAR
STARTCHAR D
ENCODING 68
SWIDTH 833 0
DWIDTH 17 0
BBX 19 15 -2 -1
BITMAP
5555554000
1BFFFFF900
01BFEABF40
002FD01FD0
002FC007F0
001FC003F4
001FC003F8
001FC002F8
001FC003F8
001FC003F4
001FC007F0
000F800FD0
001FEABF80
01FFFFF900
0695540000
ENDCHAR
STARTCHAR E
ENCODING 69
SWIDTH 781 0
DWIDTH 16 0
BBX 16 16 -1 -1
BITMAP
00000055
56ABFFFE
6FFFAA6E
01FE001E
00FE010E
00FE0506
00FE0D01
00FE1D00
00BFFD00
00BFFD05
00BE1D09
00BD090D
00BD051D
00BE556D
1BFFFFFD
55555554
ENDCHAR
STARTCHAR F
ENCODING 70
SWIDTH 731 0
DWIDTH 15 0
BBX 15 16 -1 -1
BITMAP
00000014
55AAFFFC
6FFFEABC
01FE003C
00FE002C
00FD081C
00FD0C08
00FD2C04
00FFFC00
00FFFC00
00FD2C00
00FD1C00
00FD0800
00BD0000
01FE4000
2FFFE400
ENDCHAR
STARTCHAR G
ENCODING 71
SWIDTH 828 0
DWIDTH 17 0
BBX 18 16 0 -1
BITMAP
0000000800
001AA83800
01FFFFF800
0BFE5BF800
1FE001F400
3FC0007400
7F80002400
BF40000400
BF41AAAA90
BF401BFE00
7F8001F800
3FC001FC00
1FE002FC00
0BF91BFC00
02FFFF5C00
001AA40400
ENDCHAR
STARTCHAR H
ENCODING 72
SWIDTH 797 0
DWIDTH 16 0
BBX 19 16 -2 -2
BITMAP
00001FFFF4
555555FF40
1BFF90BF00
01FE00BF00
00FD007F00
00FD007F00
00FD007F00
00FE55BE00
00FFFFFE00
00FE957E00
00FD007E00
00FD007E00
00BD00BF40
00BD1BFFF4
06FE400000
2AAAA40000
ENDCHAR
STARTCHAR I
ENCODING 73
SWIDTH 445 0
DWIDTH 9 0
BBX 11 16 -1 -2
BITMAP
AAAAA8
1BFF90
00FE00
00FD00
00FD00
00FD00
00FD00
00FD00
00FD00
00BD00
00BD00
00BD00
00BD00
00BD00
06FF40
6AAAA4
ENDCHAR
STARTCHAR J
ENCODING 74
SWIDTH 718 0
DWIDTH 14 0
BBX 18 18 -2 -3
BITMAP
0000000590
00005AFE40
006BFFF400
00000BF000
000007F000
000003F400
000003F400
000002F800
000002F800
000002F800
000002F800
6AAA02F800
1BF802F800
02E003F400
01F007F000
00FD5FD000
002FFF4000
0005540000
ENDCHAR
STARTCHAR K
ENCODING 75
SWIDTH 934 0
DWIDTH 19 0
BBX 23 17 -1 -2
BITMAP
5556A9000000
1FFF91555540
01FE006FF900
00FE002F9000
00FE01FD0000
00FE1BE00000
00FEBF400000
00FFFF800000
00FF4BD00000
00BD03F40000
00BD01FC0000
00BD00BE0000
00BD003F8000
01FE401FE000
1FFFF90BF400
0000002FFF40
000001AAAAA4
ENDCHAR
STARTCHAR L
ENCODING 76
SWIDTH 712 0
DWIDTH 14 0
BBX 15 16 -1 0
BITMAP
AAAAA900
1BFFD000
00FF0000
00FF0000
00FF0000
00BE0000
00BE0000
00BE0000
00BE0008
00BE000C
00BE001C
007E002C
007E003C
00BE55BC
07FFFFFC
6AAA5554
ENDCHAR
STARTCHAR M
ENCODING 77
SWIDTH 1033 0
DWIDTH 21 0
BBX 23 16 -1 -1
BITMAP
540000005554
6FFF0002FFD0
02FF8007FD00
00FFC00BFC00
00FFE01FFC00
00FFF03FFC00
00FBF87AFC00
00B6FDF6FC00
00B5FFE2FC00
00B4BFD2FC00
00B43F82F800
00782F42F800
00780E02F800
00780507F900
06FF902FFFE4
6AAAA5000000
ENDCHAR
STARTCHAR N
ENCODING 78
SWIDTH 840 0
DWIDTH 17 0
BBX 20 16 -1 -1
BITMAP
50001555A9
6FFF07FFE0
06FF806E00
00FFE01E00
00FFF41E00
00FBFD1E00
00F2FF1E00
00F0FF9E00
00F03FEE00
00F01FFE00
00F007FE00
00F401FE00
00F400BE00
1BFF902D00
BFFFF90D00
0000000100
ENDCHAR
STARTCHAR O
ENCODING 79
SWIDTH 808 0
DWIDTH 16 0
BBX 16 14 0 -1
BITMAP
00015000
01BFFE40
0BFEAFE0
2FE007F8
3F8002FD
7F4001FE
BF0000FE
BF4000FE
7F4001FE
3F8002FC
1FE00BF4
07FEBFD0
00BFFE00
00014000
ENDCHAR
STARTCHAR P
ENCODING 80
SWIDTH 746 0
DWIDTH 15 0
BBX 16 14 -1 -1
BITMAP
AAAAA500
1BFFFFE4
01FD56FD
00FC002F
00FC002F
00FD06FD
00FFFF90
00FE9400
00FD0000
00FD0000
00FE0000
01FE0000
1BFFE400
6AAAA500
ENDCHAR
STARTCHAR Q
ENCODING 81
SWIDTH 789 0
DWIDTH 16 0
BBX 18 19 0 -6
BITMAP
006BF90000
06FFFF8000
1FF41FF000
2FC003F800
3F4002FC00
7F4001FD00
7F4001FD00
7F4001FC00
3F8002FC00
1FD007F400
0BF96FD000
01FFFE4000
0016FC0000
0000BE0000
0000BF5000
00007FFF90
0000FFE400
0007E50000
0019000000
ENDCHAR
STARTCHAR R
ENCODING 82
SWIDTH 826 0
DWIDTH 17 0
BBX 23 18 -1 -5
BITMAP
7EAAA9400000
07FFFFF80000
00FD05BE0000
00FD002F4000
00FD002F0000
00FD56FD0000
00FFFFD00000
00FE5FD00000
00FE07F00000
00FE02F80000
00BE01FD0000
01FF40BF0000
1BFFE47F8000
6555552FEAA4
0000000FFE40
0000002FD000
000000B90000
000001400000
ENDCHAR
STARTCHAR S
ENCODING 83
SWIDTH 661 0
DWIDTH 13 0
BBX 13 16 0 -2
BITMAP
00000040
06FF9180
2FEAFF80
7E002F40
BE000740
BF940240
7FFF9000
1FFFFD00
01BFFF40
1006FFC0
24007FC0
2D002F80
2F91BF40
36FFF900
205A4000
10000000
ENDCHAR
STARTCHAR T
ENCODING 84
SWIDTH 754 0
DWIDTH 15 0
BBX 14 15 1 -1
BITMAP
55555540
FFFFFFD0
F5BF97C0
E07F43C0
D07F02C0
807F0180
407F0040
007F0000
007F0000
007F0000
007F0000
003F0000
01BF4000
1BFFF800
15555500
ENDCHAR
STARTCHAR U
ENCODING 85
SWIDTH 725 0
DWIDTH 15 0
BBX 17 14 -1 -1
BITMAP
AA954BFF40
1BFD00F800
07F400B400
07F400B400
07F400B400
07F400B400
07F400B400
07F400B400
07F400B000
07F400B000
03FC01E000
01FF9BC000
007FFE4000
0005940000
ENDCHAR
STARTCHAR V
ENCODING 86
SWIDTH 786 0
DWIDTH 16 0
BBX 20 17 -2 -2
BITMAP
0000100000
001AD10000
1AFE00BA50
6BFD001FF9
00FE000B40
00BF001E00
003F802C00
002FC07800
000FD0F000
000BF1D000
0007F7C000
0002FF4000
0001FF0000
0000BD0000
00007C0000
0000240000
0000100000
ENDCHAR
STARTCHAR W
ENCODING 87
SWIDTH 1026 0
DWIDTH 21 0
BBX 25 15 -2 -2
BITMAP
56ABE401A95000
6BFE40501BFE40
01FD00E002D000
00FE01F4038000
00BF03F8074000
007F47FD0B0000
002F8BFF0E0000
001FDFBF6D0000
000FFF2FFC0000
000BFE1FF40000
0003FC0BF00000
0002F807E00000
0001F003D00000
0000A001C00000
00004000400000
ENDCHAR
STARTCHAR X
ENCODING 88
SWIDTH 860 0
DWIDTH 17 0
BBX 21 14 -2 -1
BITMAP
000015000000
0ABFF4555900
017FC07FE400
001FE02E0000
0007F9F80000
0002FFD00000
0000BF800000
0000BFD00000
0002FFF00000
001F87F80000
007E02FE0000
06FC00BF4000
6AFF40BFF400
000007FAAA40
ENDCHAR
STARTCHAR Y
ENCODING 89
SWIDTH 848 0
DWIDTH 17 0
BBX 20 15 -2 -2
BITMAP
6ABFD00000
1BFF006AA5
007F801FE4
001FD00B40
000BF42C00
0002FDB400
0000BFD000
00003F4000
00002F4000
00002F4000
00002F4000
00002F8000
00003F8000
0002FFF900
0005555540
ENDCHAR
STARTCHAR Z
ENCODING 90
SWIDTH 685 0
DWIDTH 14 0
BBX 14 13 0 0
BITMAP
00000150
BFFFFFE0
7FEAFFC0
3C00FF40
2803FD00
240BF800
142FF010
007FC050
01FF40D0
07FE01D0
0FFD03D0
3FFFFFD0
6AAAAA80
ENDCHAR
STARTCHAR bracketleft
ENCODING 91
SWIDTH 380 0
DWIDTH 8 0
BBX 8 20 1 -3
BITMAP
5555
BFF8
BF40
BD00
BD00
BD00
BD00
BD00
BD00
BD00
BD00
BD00
7D00
7D00
7D00
7D00
7D00
7E00
7FE0
1554
ENDCHAR
STARTCHAR backslash
ENCODING 92
SWIDTH 680 0
DWIDTH 14 0
BBX 13 20 0 -2
BITMAP
05000000
2F000000
BF400000
3FC00000
1FE00000
0BF40000
07F80000
02FD0000
00FF0000
007F4000
002FC000
000FE000
0007F400
0002F800
0001FD00
0000BF00
00003F80
00001FC0
00000B80
00000100
ENDCHAR
STARTCHAR bracketright
ENCODING 93
SWIDTH 371 0
DWIDTH 7 0
BBX 8 20 -1 -3
BITMAP
5555
2FFE
02FE
00BE
00BE
00BD
00BD
00BD
00BD
00BD
00BD
007D
007D
007D
007D
007D
007D
01BC
0BFC
1554
ENDCHAR
STARTCHAR asciicircum
ENCODING 94
SWIDTH 671 0
DWIDTH 13 0
BBX 13 13 0 5
BITMAP
00040000
001D0000
003F0000
00BF8000
00FFD000
02FFE000
07F9F400
0FF0BC00
1FE02E00
3FC00F40
BF8007C0
BF000140
01000000
ENDCHAR
STARTCHAR underscore
ENCODING 95
SWIDTH 840 0
DWIDTH 17 0
BBX 17 4 0 -2
BITMAP
555555AA40
FFFFFFFF80
FFFFFFFF80
FFFFFFFF80
ENDCHAR
STARTCHAR grave
ENCODING 96
SWIDTH 707 0
DWIDTH 14 0
BBX 4 5 6 12
BITMAP
14
BC
BD
3E
2E
ENDCHAR
STARTCHAR a
ENCODING 97
SWIDTH 572 0
DWIDTH 11 0
BBX 12 12 0 -1
BITMAP
06FF40
1F9BE0
3F02F4
3F01F4
1901F4
0BFBF4
7F97F4
BE02F4
7E07F0
2FFFF0
015BFD
000155
ENDCHAR
STARTCHAR b
ENCODING 98
SWIDTH 723 0
DWIDTH 14 0
BBX 17 18 -2 -3
BITMAP
15AA000000
BFFE000000
06FE000000
00FE000000
00BE000000
00BE000000
00BE000000
00BE000000
00BE000000
00BEBFE400
00BFABFD00
00BD00BF00
007D007F40
007D007F00
007D00BE00
007D16F800
02FFFF9000
0BEA940000
ENDCHAR
STARTCHAR c
ENCODING 99
SWIDTH 589 0
DWIDTH 12 0
BBX 12 12 0 -2
BITMAP
006E80
07FFF4
1FD0FD
3F40FD
7F00B8
7F0000
7F0001
3F4009
2FD02C
0FFFF8
02FFD0
000400
ENDCHAR
STARTCHAR d
ENCODING 100
SWIDTH 713 0
DWIDTH 14 0
BBX 15 19 1 -3
BITMAP
000A9540
0001BFC0
00002FC0
00002FC0
00002F80
00002F80
00002F40
00002F40
02A93F40
1FFFFF00
7F91BF00
FD003E00
FC003E00
FC003E00
FD007D00
7F407D00
1FFAFD00
01AEBE40
00007FA4
ENDCHAR
STARTCHAR e
ENCODING 101
SWIDTH 593 0
DWIDTH 12 0
BBX 12 12 0 -2
BITMAP
000400
02FF90
0BFBF4
2F81FC
3F00BD
7FAABE
7FFFFE
3F0000
2F8004
0FFAB4
02FF80
001400
ENDCHAR
STARTCHAR f
ENCODING 102
SWIDTH 507 0
DWIDTH 10 0
BBX 13 28 -1 -8
BITMAP
00004000
000BF400
003FBE00
00BD1F00
00FC2F40
00F81F00
00F80000
01F80000
00FC0000
00FC0000
2FFFFC00
2AFEA800
00BD0000
00BE0000
007E0000
007E0000
007F0000
003F0000
003F0000
003F4000
002F4000
002F4000
101F4000
B81F4000
FC2F4000
B83E0000
3EFD0000
0BE40000
ENDCHAR
STARTCHAR g
ENCODING 103
SWIDTH 606 0
DWIDTH 12 0
BBX 13 23 0 -10
BITMAP
00001900
00007F80
0001FFC0
02FFDF80
0FD7F500
2F40FC00
7E00BD00
7D007E00
7E007E00
7E00BD00
2F41F800
0BEBE000
1FFE4000
2F950000
2FFFE400
1FFBFE00
7F407F40
BD002F80
FC001F80
FD001F80
7F007F40
2FEAFD00
02BF9000
ENDCHAR
STARTCHAR h
ENCODING 104
SWIDTH 678 0
DWIDTH 14 0
BBX 17 19 -2 -2
BITMAP
16BE000000
6FFE000000
01FE000000
00FE000000
00FE000000
00FE000000
00BD000000
00BD000000
00BD000000
00BFFE8000
00BFABF400
00BD02F800
00BD00FC00
00BC00FC00
00BC00F800
00BD00F800
07FF80F800
04000BFE00
0000055540
ENDCHAR
STARTCHAR i
ENCODING 105
SWIDTH 393 0
DWIDTH 8 0
BBX 9 16 0 0
BITMAP
02A000
07F400
07F800
03F000
004000
555400
2FF400
03F400
02F400
02F400
02F400
02F000
02F000
02F000
0BF800
6FFF40
ENDCHAR
STARTCHAR j
ENCODING 106
SWIDTH 385 0
DWIDTH 8 0
BBX 9 22 -2 -7
BITMAP
006400
01FC00
02FD00
01FC00
005000
005A00
0BFF00
007F00
003F40
002F40
002F40
002F80
001F80
001F80
001F80
000FC0
000FC0
3D0FC0
7E0F80
7D0F40
1FBE00
06A400
ENDCHAR
STARTCHAR k
ENCODING 107
SWIDTH 749 0
DWIDTH 15 0
BBX 19 18 -2 -2
BITMAP
6AFF000000
05FE000000
00FE000000
00FE1AAAA0
00BE07FE40
00BE02F400
00BE0B8000
00BE7D0000
00BFFD0000
007FFF0000
007E1F8000
007E0BD000
007E03F000
007D01F400
00BE40BC00
0BFFE43F94
000000BF94
0000069000
ENDCHAR
STARTCHAR l
ENCODING 108
SWIDTH 369 0
DWIDTH 7 0
BBX 10 19 -2 -2
BITMAP
6FFF00
01FE00
00BE00
00BE00
00BE00
00BE00
00BE00
00BE00
00BE00
007E00
007D00
007D00
007D00
007D00
007D00
007D00
007E00
02FFD0
055550
ENDCHAR
STARTCHAR m
ENCODING 109
SWIDTH 990 0
DWIDTH 20 0
BBX 23 10 -2 1
BITMAP
016A1A005400
6FFFFFEBFE00
01FFABFFBF40
00BE02F81F80
007D01F40F80
007D01F00F80
003D01F00F80
00BE01F01F80
06AA86F4AAA4
00006AA90000
ENDCHAR
STARTCHAR n
ENCODING 110
SWIDTH 643 0
DWIDTH 13 0
BBX 16 10 -2 1
BITMAP
016A1900
6FFFFFD0
01FFABF0
00BE02F4
007D01F4
007D01F4
003D01F0
00BE01F0
06AA86F4
00006AA9
ENDCHAR
STARTCHAR o
ENCODING 111
SWIDTH 705 0
DWIDTH 14 0
BBX 14 10 0 0
BITMAP
00565000
07FFFE00
2FD06F80
7F000FD0
BE0007E0
BD0007F0
BE000BE0
3F401FD0
1FE6BF40
02FFE400
ENDCHAR
STARTCHAR p
ENCODING 112
SWIDTH 723 0
DWIDTH 14 0
BBX 17 16 -2 -5
BITMAP
5ABE000000
1BFE694000
00BFFFF400
00BE01FD00
00BE003F00
00BE002F40
00BE002F40
007E007F00
007F55FD00
007FFFF400
007E5A4000
007E000000
003E000000
003E000000
01FFD00000
1AAAA40000
ENDCHAR
STARTCHAR q
ENCODING 113
SWIDTH 682 0
DWIDTH 14 0
BBX 16 17 0 -5
BITMAP
00001555
00003FF8
06BFBF80
1FEAFF40
7F403F00
BD003F00
BD003F00
BD007F00
7F407F00
2FEAFE00
06FFBE00
00007E00
00007E00
00007E00
0000BE00
001BFFE4
00001555
ENDCHAR
STARTCHAR r
ENCODING 114
SWIDTH 595 0
DWIDTH 12 0
BBX 14 12 -1 0
BITMAP
00691A40
6FFEBFD0
1AFFFFD0
00FF0BD0
00FD0100
00BD0000
00BD0000
00BD0000
007D0000
007E0000
02FFE400
1FEA5400
ENDCHAR
STARTCHAR s
ENCODING 115
SWIDTH 533 0
DWIDTH 11 0
BBX 11 13 0 -1
BITMAP
02A410
1FFF70
7D07F0
BD00F0
7F9020
2FFE10
0BFFD0
11BFF4
7407F8
7D01F8
7FEBF0
52BE40
400000
ENDCHAR
STARTCHAR t
ENCODING 116
SWIDTH 422 0
DWIDTH 8 0
BBX 9 19 0 -1
BITMAP
00E000
01E000
02D000
03D000
1FD000
FFFE80
AFFFC0
1FC000
1FC000
1F8000
1F8000
1F8000
2F4000
2F4040
2F4140
2F4340
1FEF00
0BFD00
01A000
ENDCHAR
STARTCHAR u
ENCODING 117
SWIDTH 614 0
DWIDTH 12 0
BBX 16 11 -2 -1
BITMAP
6AF456A0
0BF42FF0
02F407E0
02F407E0
02F007D0
02F007D0
02F007C0
02F40BC0
00FEBFC0
007FFBF9
00014694
ENDCHAR
STARTCHAR v
ENCODING 118
SWIDTH 639 0
DWIDTH 13 0
BBX 17 13 -2 -2
BITMAP
005A400000
6FFD550000
07F81FFE40
01FC03E400
00FD03C000
007F0B4000
002F4F0000
000FED0000
000BFC0000
0003F40000
0001F00000
0000D00000
0000400000
ENDCHAR
STARTCHAR w
ENCODING 119
SWIDTH 805 0
DWIDTH 16 0
BBX 21 11 -2 0
BITMAP
6AFE441AAA40
1BF80907E400
02FC1F03C000
00FD2F478000
00BE3F8F0000
007FBFEE0000
002FF7FD0000
001FD3F80000
000BC1F40000
000740E00000
000200900000
ENDCHAR
STARTCHAR x
ENCODING 120
SWIDTH 717 0
DWIDTH 14 0
BBX 18 12 -2 -1
BITMAP
056BD00000
5BFE1AAA90
00BF47F900
002FD7D000
000BFE0000
0003FC0000
0002FE0000
000BBF4000
007E1FD000
1BFF47F400
000557FF90
00002A5400
ENDCHAR
STARTCHAR y
ENCODING 121
SWIDTH 655 0
DWIDTH 13 0
BBX 14 20 -1 -9
BITMAP
50000000
2E42A940
0FF47FD0
0BF00FD0
0BE00FD0
0FE00FD0
1FD00FD0
1FD00FD0
0FF96FD0
07FFFFD0
006A5FC0
00000FC0
00000FC0
00001FC0
06401FC0
0FC02F80
0F803F40
0F80BE00
03FBFC00
00AF9000
ENDCHAR
STARTCHAR z
ENCODING 122
SWIDTH 549 0
DWIDTH 11 0
BBX 12 12 0 -1
BITMAP
155555
BFFFFC
7D5BF4
780FE0
343F80
20BF00
12FD14
07F824
0FF038
3FFAB8
6BFFF8
000054
ENDCHAR
STARTCHAR braceleft
ENCODING 123
SWIDTH 708 0
DWIDTH 14 0
BBX 10 20 2 -3
BITMAP
015550
03FFD0
03F900
03F400
03F000
03F000
03F000
03F000
03F000
1BF000
AFF000
02F000
02F000
02F000
02F000
02F000
02F000
02F400
02FF40
015550
ENDCHAR
STARTCHAR bar
ENCODING 124
SWIDTH 304 0
DWIDTH 6 0
BBX 4 19 1 -2
BITMAP
6A
BE
BE
BE
BE
BE
BE
BE
7E
7E
7E
7E
7E
7E
7D
7D
7D
7D
55
ENDCHAR
STARTCHAR braceright
ENCODING 125
SWIDTH 517 0
DWIDTH 10 0
BBX 11 20 0 -3
BITMAP
555500
2FFE00
02FE00
00BE00
00BE00
00BD00
00BD00
00BD00
00BD00
00BF90
007FE4
007D00
007D00
007D00
007D00
007D00
007D00
01BC00
0BFC00
155400
ENDCHAR
STARTCHAR asciitilde
ENCODING 126
SWIDTH 466 0
DWIDTH 9 0
BBX 10 4 0 4
BITMAP
BF95D0
FFFFD0
FAFFD0
801940
ENDCHAR
STARTCHAR uni00A0
ENCODING 160
SWIDTH 320 0
DWIDTH 6 0
BBX 1 1 0 0
BITMAP
00
ENDCHAR
STARTCHAR exclamdown
ENCODING 161
SWIDTH 305 0
DWIDTH 6 0
BBX 6 17 0 -6
BITMAP
0690
0BF0
07E0
0000
0B80
0BC0
0F80
0F80
1F80
1F80
2F80
2F80
3F80
7F80
7F40
BF40
BF40
ENDCHAR
STARTCHAR cent
ENCODING 162
SWIDTH 417 0
DWIDTH 8 0
BBX 9 17 0 -2
BITMAP
015000
02F000
02E000
02E000
1BFD00
3D1F00
B80F40
F40600
F40000
F40000
F80140
7E0700
2FFD00
06F400
02E000
02E000
02F000
ENDCHAR
STARTCHAR sterling
ENCODING 163
SWIDTH 658 0
DWIDTH 13 0
BBX 14 15 0 -1
BITMAP
00000080
007FE180
02FEFF80
07E02F80
0BD00B40
AFE54340
FFFFD200
ABFA9100
02F54010
FFFFD050
AFFFD0D0
02E001C0
07EAABC0
0FFFFFC0
15AAAAC0
ENDCHAR
STARTCHAR currency
ENCODING 164
SWIDTH 358 0
DWIDTH 7 0
BBX 7 7 0 4
BITMAP
2010
BFB8
7FF8
3874
3DB4
7FF8
B578
ENDCHAR
STARTCHAR yen
ENCODING 165
SWIDTH 796 0
DWIDTH 16 0
BBX 18 13 -2 0
BITMAP
5ABD000000
1BF806FF90
00BD007900
002F41E000
000FD78000
0003FE0000
0005F80000
002FFFD000
0015BD4000
002FFFD000
0000BD4000
0006FE4000
006AAAA400
ENDCHAR
STARTCHAR brokenbar
ENCODING 166
SWIDTH 304 0
DWIDTH 6 0
BBX 4 19 1 -2
BITMAP
6A
BE
BE
BE
BE
BE
BE
54
00
00
00
7D
7E
7D
7D
7D
7D
7D
55
ENDCHAR
STARTCHAR section
ENCODING 167
SWIDTH 646 0
DWIDTH 13 0
BBX 11 23 1 -5
BITMAP
015004
1FFE14
7E5BE4
F801F4
F80074
FE0024
BFE400
3FFE40
2FFFE0
7EBFF8
F80BFC
F801FC
FE00FC
BFE6F8
3FFFD0
0BFFE0
01BFF4
801BFC
A001FC
B800FC
FF56F8
DBFFE0
805500
ENDCHAR
STARTCHAR dieresis
ENCODING 168
SWIDTH 708 0
DWIDTH 14 0
BBX 6 3 4 16
BITMAP
B4A0
F5F0
5050
ENDCHAR
STARTCHAR copyright
ENCODING 169
SWIDTH 700 0
DWIDTH 14 0
BBX 14 13 0 1
BITMAP
00154000
06FFF900
1F946F40
3D1A47C0
B875E2E0
F4E0A1F0
F1E000F0
F1E001F0
B4F421E0
787FD3D0
2E050B80
0BE6BE00
01BFE400
ENDCHAR
STARTCHAR ordfeminine
ENCODING 170
SWIDTH 399 0
DWIDTH 8 0
BBX 8 9 0 7
BITMAP
1A90
BAF4
B878
657C
BFFC
F4B8
FEF8
1AFE
0054
ENDCHAR
STARTCHAR guillemotleft
ENCODING 171
SWIDTH 424 0
DWIDTH 9 0
BBX 9 11 0 -1
BITMAP
020200
074740
0F1F00
2E3D00
7CBC00
BCF800
7D7C00
1E2E00
0B4F00
034700
010100
ENDCHAR
STARTCHAR logicalnot
ENCODING 172
SWIDTH 541 0
DWIDTH 11 0
BBX 12 10 0 1
BITMAP
400004
900018
AA9574
BFFFF4
BFFFF4
A555F4
8000B4
400070
0000B4
0001A9
ENDCHAR
STARTCHAR sfthyphen
ENCODING 173
SWIDTH 530 0
DWIDTH 11 0
BBX 11 4 0 5
BITMAP
AA5550
FFFFF8
FFFFF8
AAAAA4
ENDCHAR
STARTCHAR registered
ENCODING 174
SWIDTH 700 0
DWIDTH 14 0
BBX 14 14 0 0
BITMAP
00054000
02FFF800
1FE56F40
3E000BC0
B8AEB6E0
F42FB9E0
F01D00F0
F01D00F0
B41D01E0
782F82D0
3E540B80
0F95BE00
01FFE400
00050000
ENDCHAR
STARTCHAR macron
ENCODING 175
SWIDTH 705 0
DWIDTH 14 0
BBX 6 3 5 14
BITMAP
FFE0
FFE0
6A90
ENDCHAR
STARTCHAR degree
ENCODING 176
SWIDTH 364 0
DWIDTH 7 0
BBX 6 6 1 9
BITMAP
0400
7F40
BBC0
E1D0
BBC0
2E40
ENDCHAR
STARTCHAR plusminus
ENCODING 177
SWIDTH 607 0
DWIDTH 12 0
BBX 12 13 0 0
BITMAP
006900
00BE00
007E00
7FFFA9
BFFFFE
BFFFFE
107D00
007D00
007D00
155500
7FFFFE
7FFFFE
7AAAA9
ENDCHAR
STARTCHAR twosuperior
ENCODING 178
SWIDTH 440 0
DWIDTH 9 0
BBX 9 11 0 7
BITMAP
519000
3BFD00
3E6F40
380F40
201F40
10BE40
07F540
2F4340
BEAB40
FFFF40
55AA00
ENDCHAR
STARTCHAR threesuperior
ENCODING 179
SWIDTH 442 0
DWIDTH 9 0
BBX 9 12 0 6
BITMAP
400000
66E400
3FFE00
3C1F40
240F40
12BF00
03FF00
202F80
381F80
7FBF00
6BF900
400000
ENDCHAR
STARTCHAR acute
ENCODING 180
SWIDTH 694 0
DWIDTH 14 0
BBX 4 5 6 15
BITMAP
10
7D
BD
F8
B0
ENDCHAR
STARTCHAR mu
ENCODING 181
SWIDTH 1000 0
DWIDTH 20 0
BBX 15 16 0 -6
BITMAP
6AF55690
0BF46FE0
03F007E0
03F007D0
03F007D0
03F00BC0
03F00BC0
02F40F80
02FEBF80
02FFEBF4
02F10A90
02E00000
02E00000
02E00000
02E00000
00500000
ENDCHAR
STARTCHAR paragraph
ENCODING 182
SWIDTH 782 0
DWIDTH 16 0
BBX 17 15 -1 -1
BITMAP
0000000140
01AFFFFE40
1FFFFFE400
3F43D3C000
7D03D3C000
3F43D7C000
0BFBEBC000
01AFFFC000
0003D7C000
0003D7C000
0003C7C000
0003CBC000
0003FFE000
001BFFFE00
01AA555500
ENDCHAR
STARTCHAR periodcentered
ENCODING 183
SWIDTH 226 0
DWIDTH 5 0
BBX 5 4 0 6
BITMAP
0400
7E00
BF40
7E00
ENDCHAR
STARTCHAR cedilla
ENCODING 184
SWIDTH 780 0
DWIDTH 16 0
BBX 5 7 5 -4
BITMAP
0500
1D00
3F40
17C0
12C0
7F80
1A00
ENDCHAR
STARTCHAR onesuperior
ENCODING 185
SWIDTH 390 0
DWIDTH 8 0
BBX 8 11 0 7
BITMAP
0010
1AF0
6FF0
03F0
02F0
02E0
02E0
02E0
02E0
02F0
1FFD
ENDCHAR
STARTCHAR ordmasculine
ENCODING 186
SWIDTH 449 0
DWIDTH 9 0
BBX 10 8 -1 8
BITMAP
005400
0BFF80
3F47E0
7D01F0
7C01F0
3E02E0
1FFF80
016500
ENDCHAR
STARTCHAR guillemotright
ENCODING 187
SWIDTH 415 0
DWIDTH 8 0
BBX 9 11 0 -1
BITMAP
504000
B0E000
78B800
3D3D00
1F6F00
1F5F40
2E2E00
3C7C00
B4B400
A09000
004000
ENDCHAR
STARTCHAR onequarter
ENCODING 188
SWIDTH 918 0
DWIDTH 18 0
BBX 18 21 0 -3
BITMAP
0010000400
1AF0001F40
6FF0002F40
03F0007E00
02F000FC00
02E002F400
02E007E000
02E00BC000
02E01F4100
02F03F0700
1FFDBD0F00
0000F82F00
0002F0BF00
0007D2FF20
000F87AFA0
001F1FFFE0
003D2AAFD0
00BC001E50
01F4006F40
02E006AA90
0040000000
ENDCHAR
STARTCHAR onehalf
ENCODING 189
SWIDTH 1007 0
DWIDTH 20 0
BBX 20 21 0 -3
BITMAP
0010000400
1AF0001F40
6FF0002F40
03F0007E00
02F000FC00
02E002F400
02E007E000
02E00BC000
02E01F4000
02F03F0000
1FFDBD4140
0000F8AFF8
0002F0BD7E
0007D0B42F
000F80603E
001F0051BD
003D004BE6
00BC007E4A
01F400FD5E
02E001FFFE
004001AAA9
ENDCHAR
STARTCHAR threequarters
ENCODING 190
SWIDTH 936 0
DWIDTH 19 0
BBX 18 21 0 -3
BITMAP
4000000500
66E4000F80
3FFE001F80
3C1F403F00
240F40BD00
12BF01F800
03FF02F000
202F87D000
381F8F8040
7FBF2F4240
6BF93E0B40
4000BC2F40
0001F47F40
0003E1FF60
0007C3DF70
000F4FEFF0
002E1AAFB0
007D000F60
00B8006F80
01F002AAA0
0050000000
ENDCHAR
STARTCHAR questiondown
ENCODING 191
SWIDTH 568 0
DWIDTH 11 0
BBX 12 18 0 -6
BITMAP
000190
0003FC
0003FC
0001A4
000100
0007D0
000FC0
016FC0
1FFFC0
7F9580
FE0000
FC0000
FC0001
FD0009
7F401C
1FFAF8
01AEB8
000024
ENDCHAR
STARTCHAR Agrave
ENCODING 192
SWIDTH 788 0
DWIDTH 16 0
BBX 22 25 -3 -5
BITMAP
000004000000
0000BC000000
00007D000000
00003E000000
00001E000000
000004000000
001550000000
001BFF000000
0001BF800000
00002FC00000
00003FE00000
0000BBF00000
0000E3F80000
0002D2FC0000
000380FE0000
000BFEFF0000
001FFFFF8000
002D002FC000
0078001FE000
06F8000FF000
6FFF4007F800
00155003FF90
0000000BFE50
0000002E5000
000000100000
ENDCHAR
STARTCHAR Aacute
ENCODING 193
SWIDTH 788 0
DWIDTH 16 0
BBX 22 25 -3 -5
BITMAP
000001000000
00000B800000
00000F800000
00001F400000
00001E000000
000000000000
001550000000
001BFF000000
0001BF800000
00002FC00000
00003FE00000
0000BBF00000
0000E3F80000
0002D2FC0000
000380FE0000
000BFEFF0000
001FFFFF8000
002D002FC000
0078001FE000
06F8000FF000
6FFF4007F800
00155003FF90
0000000BFE50
0000002E5000
000000100000
ENDCHAR
STARTCHAR Acircumflex
ENCODING 194
SWIDTH 788 0
DWIDTH 16 0
BBX 22 25 -3 -5
BITMAP
000005000000
00000F000000
00003F800000
0000BFE00000
0001E0B40000
000000000000
001550000000
001BFF000000
0001BF800000
00002FC00000
00003FE00000
0000BBF00000
0000E3F80000
0002D2FC0000
000380FE0000
000BFEFF0000
001FFFFF8000
002D002FC000
0078001FE000
06F8000FF000
6FFF4007F800
00155003FF90
0000000BFE50
0000002E5000
000000100000
ENDCHAR
STARTCHAR Atilde
ENCODING 195
SWIDTH 788 0
DWIDTH 16 0
BBX 22 24 -3 -5
BITMAP
000014100000
0000FFB00000
0000FFF00000
000041900000
000000000000
001550000000
001BFF000000
0001BF800000
00002FC00000
00003FE00000
0000BBF00000
0000E3F80000
0002D2FC0000
000380FE0000
000BFEFF0000
001FFFFF8000
002D002FC000
0078001FE000
06F8000FF000
6FFF4007F800
00155003FF90
0000000BFE50
0000002E5000
000000100000
ENDCHAR
STARTCHAR Adieresis
ENCODING 196
SWIDTH 788 0
DWIDTH 16 0
BBX 22 22 -3 -5
BITMAP
0000A1D00000
0000F5E00000
000050500000
001550000000
001BFF000000
0001BF800000
00002FC00000
00003FE00000
0000BBF00000
0000E3F80000
0002D2FC0000
000380FE0000
000BFEFF0000
001FFFFF8000
002D002FC000
0078001FE000
06F8000FF000
6FFF4007F800
00155003FF90
0000000BFE50
0000002E5000
000000100000
ENDCHAR
STARTCHAR Aring
ENCODING 197
SWIDTH 788 0
DWIDTH 16 0
BBX 22 22 -3 -5
BITMAP
00001F400000
00003AC00000
000035C00000
00156F800000
001BFF000000
0001BF800000
00002FC00000
00003FE00000
0000BBF00000
0000E3F80000
0002D2FC0000
000380FE0000
000BFEFF0000
001FFFFF8000
002D002FC000
0078001FE000
06F8000FF000
6FFF4007F800
00155003FF90
0000000BFE50
0000002E5000
000000100000
ENDCHAR
STARTCHAR AE
ENCODING 198
SWIDTH 1019 0
DWIDTH 20 0
BBX 25 17 -5 -2
BITMAP
00000000015540
0002ABFFFFFF80
0000BFFFEA9F80
00001FFFC00740
00000BAFC04340
00000F6FC18240
00002D2FC28040
0000782FC78000
0000F42FFF8000
0002E01FFF4100
0007FFFFC74200
000BFFFFC24300
001E001F804700
0078002FD55B00
07FD06FFFFFF00
6BFF9555555500
00004000000000
ENDCHAR
STARTCHAR Ccedilla
ENCODING 199
SWIDTH 766 0
DWIDTH 15 0
BBX 15 22 0 -7
BITMAP
00000004
001AA408
01FFFF68
0BFE5BF8
1FE001F4
3FC00074
7F400020
BF400010
BF000000
BF400000
7F400010
3F800020
2FD00070
0BF901F4
02FFFFE8
006FFE08
000B4000
001F8000
001AE000
0004B000
001EE000
000B8000
ENDCHAR
STARTCHAR Egrave
ENCODING 200
SWIDTH 781 0
DWIDTH 16 0
BBX 16 22 -1 -1
BITMAP
00004000
0007D000
0003F000
0001F400
0000F400
00004000
00000055
56ABFFFE
6FFFAA6E
01FE001E
00FE010E
00FE0506
00FE0D01
00FE1D00
00BFFD00
00BFFD05
00BE1D09
00BD090D
00BD051D
00BE556D
1BFFFFFD
55555554
ENDCHAR
STARTCHAR Eacute
ENCODING 201
SWIDTH 781 0
DWIDTH 16 0
BBX 16 21 -1 -1
BITMAP
00001000
00007D00
0000BD00
0000F800
0000B000
00000055
56ABFFFE
6FFFAA6E
01FE001E
00FE010E
00FE0506
00FE0D01
00FE1D00
00BFFD00
00BFFD05
00BE1D09
00BD090D
00BD051D
00BE556D
1BFFFFFD
55555554
ENDCHAR
STARTCHAR Ecircumflex
ENCODING 202
SWIDTH 781 0
DWIDTH 16 0
BBX 16 22 -1 -1
BITMAP
00004000
0001E000
0007F400
000FFD00
002D1F00
00000000
00000055
56ABFFFE
6FFFAA6E
01FE001E
00FE010E
00FE0506
00FE0D01
00FE1D00
00BFFD00
00BFFD05
00BE1D09
00BD090D
00BD051D
00BE556D
1BFFFFFD
55555554
ENDCHAR
STARTCHAR Edieresis
ENCODING 203
SWIDTH 781 0
DWIDTH 16 0
BBX 16 19 -1 -1
BITMAP
000A1D00
000F5E00
00050500
00000055
56ABFFFE
6FFFAA6E
01FE001E
00FE010E
00FE0506
00FE0D01
00FE1D00
00BFFD00
00BFFD05
00BE1D09
00BD090D
00BD051D
00BE556D
1BFFFFFD
55555554
ENDCHAR
STARTCHAR Igrave
ENCODING 204
SWIDTH 445 0
DWIDTH 9 0
BBX 11 23 -1 -2
BITMAP
001000
02F000
01F400
00F800
007800
001000
000000
AAAAA8
1BFF90
00FE00
00FD00
00FD00
00FD00
00FD00
00FD00
00FD00
00BD00
00BD00
00BD00
00BD00
00BD00
06FF40
6AAAA4
ENDCHAR
STARTCHAR Iacute
ENCODING 205
SWIDTH 445 0
DWIDTH 9 0
BBX 11 22 -1 -2
BITMAP
000400
001E40
002F00
003D00
007C00
000000
AAAAA8
1BFF90
00FE00
00FD00
00FD00
00FD00
00FD00
00FD00
00FD00
00BD00
00BD00
00BD00
00BD00
00BD00
06FF40
6AAAA4
ENDCHAR
STARTCHAR Icircumflex
ENCODING 206
SWIDTH 445 0
DWIDTH 9 0
BBX 11 23 -1 -2
BITMAP
001000
007800
00FE00
02FF40
0B42C0
000000
000000
AAAAA8
1BFF90
00FE00
00FD00
00FD00
00FD00
00FD00
00FD00
00FD00
00BD00
00BD00
00BD00
00BD00
00BD00
06FF40
6AAAA4
ENDCHAR
STARTCHAR Idieresis
ENCODING 207
SWIDTH 445 0
DWIDTH 9 0
BBX 11 20 -1 -2
BITMAP
028740
07CB80
014100
000000
AAAAA8
1BFF90
00FE00
00FD00
00FD00
00FD00
00FD00
00FD00
00FD00
00BD00
00BD00
00BD00
00BD00
00BD00
06FF40
6AAAA4
ENDCHAR
STARTCHAR Eth
ENCODING 208
SWIDTH 1000 0
DWIDTH 20 0
BBX 20 15 0 -1
BITMAP
5555554000
1BFFFFF900
00BFFABF80
001FE00BF0
001FE003F8
001FD002FC
0AAFE501FC
0FFFFF81FD
0FFFFA41FC
000FD002FC
000BD003F8
000BC00BF0
001FEABFD0
01BFFFF900
0695550000
ENDCHAR
STARTCHAR Ntilde
ENCODING 209
SWIDTH 840 0
DWIDTH 17 0
BBX 20 21 -1 -1
BITMAP
0001404000
000BFB8000
000BFF8000
0004190000
0000000000
50001555A9
6FFF07FFE0
06FF806E00
00FFE01E00
00FFF41E00
00FBFD1E00
00F2FF1E00
00F0FF9E00
00F03FEE00
00F01FFE00
00F007FE00
00F401FE00
00F400BE00
1BFF902D00
BFFFF90D00
0000000100
ENDCHAR
STARTCHAR Ograve
ENCODING 210
SWIDTH 808 0
DWIDTH 16 0
BBX 16 20 0 -1
BITMAP
00004000
0007D000
0007E000
0002F000
0001F000
00004000
00015000
01BFFE40
0BFEAFE0
2FE007F8
3F8002FD
7F4001FE
BF0000FE
BF4000FE
7F4001FE
3F8002FC
1FE00BF4
07FEBFD0
00BFFE00
00014000
ENDCHAR
STARTCHAR Oacute
ENCODING 211
SWIDTH 808 0
DWIDTH 16 0
BBX 16 20 0 -1
BITMAP
00004000
0000F400
0001F400
0002E000
0002D000
00000000
00015000
01BFFE40
0BFEAFE0
2FE007F8
3F8002FD
7F4001FE
BF0000FE
BF4000FE
7F4001FE
3F8002FC
1FE00BF4
07FEBFD0
00BFFE00
00014000
ENDCHAR
STARTCHAR Ocircumflex
ENCODING 212
SWIDTH 808 0
DWIDTH 16 0
BBX 16 20 0 -1
BITMAP
00004000
0003D000
000BF000
001FF800
00382D00
00000000
00015000
01BFFE40
0BFEAFE0
2FE007F8
3F8002FD
7F4001FE
BF0000FE
BF4000FE
7F4001FE
3F8002FC
1FE00BF4
07FEBFD0
00BFFE00
00014000
ENDCHAR
STARTCHAR Otilde
ENCODING 213
SWIDTH 808 0
DWIDTH 16 0
BBX 16 19 0 -1
BITMAP
00050100
002FEE00
002FFE00
00106400
00000000
00015000
01BFFE40
0BFEAFE0
2FE007F8
3F8002FD
7F4001FE
BF0000FE
BF4000FE
7F4001FE
3F8002FC
1FE00BF4
07FEBFD0
00BFFE00
00014000
ENDCHAR
STARTCHAR Odieresis
ENCODING 214
SWIDTH 808 0
DWIDTH 16 0
BBX 16 17 0 -1
BITMAP
002D2800
003D7C00
00141400
00015000
01BFFE40
0BFEAFE0
2FE007F8
3F8002FD
7F4001FE
BF0000FE
BF4000FE
7F4001FE
3F8002FC
1FE00BF4
07FEBFD0
00BFFE00
00014000
ENDCHAR
STARTCHAR multiply
ENCODING 215
SWIDTH 556 0
DWIDTH 11 0
BBX 11 11 0 1
BITMAP
1D0090
7F42F4
7FDBF8
1FFFE0
07FF80
02FF00
0BFF80
2FDFE0
7F43F8
2D00E0
040000
ENDCHAR
STARTCHAR Oslash
ENCODING 216
SWIDTH 808 0
DWIDTH 16 0
BBX 16 17 0 -2
BITMAP
00000100
00000790
00015BE0
01BFFFD0
0BFEBFE0
2FE07FF8
3F80FEFD
7F41F8FE
BF03F0FE
BF4BD0FE
7F4F81FE
3FAF02FC
1FFD07F4
07FEBFD0
01FFFE00
03E14000
02C00000
ENDCHAR
STARTCHAR Ugrave
ENCODING 217
SWIDTH 725 0
DWIDTH 15 0
BBX 17 21 -1 -1
BITMAP
0000400000
0007D00000
0007E00000
0002F00000
0001F00000
0000400000
0000000000
AA954BFF40
1BFD00F800
07F400B400
07F400B400
07F400B400
07F400B400
07F400B400
07F400B400
07F400B000
07F400B000
03FC01E000
01FF9BC000
007FFE4000
0005940000
ENDCHAR
STARTCHAR Uacute
ENCODING 218
SWIDTH 725 0
DWIDTH 15 0
BBX 17 21 -1 -1
BITMAP
0000400000
0000F40000
0001F40000
0002E00000
0002D00000
0000000000
0000000000
AA954BFF40
1BFD00F800
07F400B400
07F400B400
07F400B400
07F400B400
07F400B400
07F400B400
07F400B000
07F400B000
03FC01E000
01FF9BC000
007FFE4000
0005940000
ENDCHAR
STARTCHAR Ucircumflex
ENCODING 219
SWIDTH 725 0
DWIDTH 15 0
BBX 17 21 -1 -1
BITMAP
0000400000
0001E00000
0007F40000
000FFD0000
002D1F0000
0000000000
0000000000
AA954BFF40
1BFD00F800
07F400B400
07F400B400
07F400B400
07F400B400
07F400B400
07F400B400
07F400B000
07F400B000
03FC01E000
01FF9BC000
007FFE4000
0005940000
ENDCHAR
STARTCHAR Udieresis
ENCODING 220
SWIDTH 725 0
DWIDTH 15 0
BBX 17 18 -1 -1
BITMAP
000A1D0000
000F5E0000
0005050000
0000000000
AA954BFF40
1BFD00F800
07F400B400
07F400B400
07F400B400
07F400B400
07F400B400
07F400B400
07F400B000
07F400B000
03FC01E000
01FF9BC000
007FFE4000
0005940000
ENDCHAR
STARTCHAR Yacute
ENCODING 221
SWIDTH 848 0
DWIDTH 17 0
BBX 20 21 -2 -2
BITMAP
0000004000
000002E000
000003E000
000007D000
0000078000
0000000000
6ABFD00000
1BFF006AA5
007F801FE4
001FD00B40
000BF42C00
0002FDB400
0000BFD000
00003F4000
00002F4000
00002F4000
00002F4000
00002F8000
00003F8000
0002FFF900
0005555540
ENDCHAR
STARTCHAR Thorn
ENCODING 222
SWIDTH 745 0
DWIDTH 15 0
BBX 16 14 -1 -1
BITMAP
AAAAA400
1BFF9000
01FD0000
00FFFE90
00FEAFF8
00FC007F
00FC002F
00FC007E
00FEAFF4
00FFFA40
00FD0000
01FE0000
1BFFE000
6AAAA500
ENDCHAR
STARTCHAR germandbls
ENCODING 223
SWIDTH 986 0
DWIDTH 20 0
BBX 21 27 -1 -8
BITMAP
000055000000
0007FF900000
001F96F40000
003E00B80000
007D007D0000
00BC003D0000
00FC003E0000
00FC007D0000
00FC00BC0000
2FFC01F80000
2AFD03F00000
00BD07E00000
00BE0BD00000
007E0BE00000
007E07F90000
003F02FFD000
003F00BFFE00
003F010BFF80
002F47407FC0
002F47D01F80
002F47FEBF40
101F466FF900
B81F44000000
FC2F40000000
B83E00000000
3EFD00000000
0BE000000000
ENDCHAR
STARTCHAR agrave
ENCODING 224
SWIDTH 572 0
DWIDTH 11 0
BBX 12 19 0 -1
BITMAP
000100
001F40
001F80
000BC0
0007C0
000100
000000
06FF40
1F9BE0
3F02F4
3F01F4
1901F4
0BFBF4
7F97F4
BE02F4
7E07F0
2FFFF0
015BFD
000155
ENDCHAR
STARTCHAR aacute
ENCODING 225
SWIDTH 572 0
DWIDTH 11 0
BBX 12 19 0 -1
BITMAP
000100
000B80
000F80
001F40
001E00
000000
000000
06FF40
1F9BE0
3F02F4
3F01F4
1901F4
0BFBF4
7F97F4
BE02F4
7E07F0
2FFFF0
015BFD
000155
ENDCHAR
STARTCHAR acircumflex
ENCODING 226
SWIDTH 572 0
DWIDTH 11 0
BBX 12 19 0 -1
BITMAP
000400
001E00
007F40
00FFD0
02D1E0
000000
000000
06FF40
1F9BE0
3F02F4
3F01F4
1901F4
0BFBF4
7F97F4
BE02F4
7E07F0
2FFFF0
015BFD
000155
ENDCHAR
STARTCHAR atilde
ENCODING 227
SWIDTH 572 0
DWIDTH 11 0
BBX 12 17 0 -1
BITMAP
005410
01FFE0
01FFE0
014690
000000
06FF40
1F9BE0
3F02F4
3F01F4
1901F4
0BFBF4
7F97F4
BE02F4
7E07F0
2FFFF0
015BFD
000155
ENDCHAR
STARTCHAR adieresis
ENCODING 228
SWIDTH 572 0
DWIDTH 11 0
BBX 12 16 0 -1
BITMAP
02D280
03D7C0
014140
000000
06FF40
1F9BE0
3F02F4
3F01F4
1901F4
0BFBF4
7F97F4
BE02F4
7E07F0
2FFFF0
015BFD
000155
ENDCHAR
STARTCHAR aring
ENCODING 229
SWIDTH 572 0
DWIDTH 11 0
BBX 12 16 0 -1
BITMAP
002E00
007B80
007680
003F40
06FF40
1F9BE0
3F02F0
3F01F4
1901F4
0BFBF4
7F97F4
BE02F4
7E07F0
2FFFF0
015BFD
000155
ENDCHAR
STARTCHAR ae
ENCODING 230
SWIDTH 1022 0
DWIDTH 20 0
BBX 21 12 0 -1
BITMAP
06FE40154000
2F9FD1FFE400
7D03EBE6FC00
7E03FF807E00
2802FF957F00
1BFBFFFFFF40
BE5BFF955500
FD07FFC00500
FE07E7FAB800
7FFFE1BF9000
055BF9000000
000555000000
ENDCHAR
STARTCHAR ccedilla
ENCODING 231
SWIDTH 589 0
DWIDTH 12 0
BBX 12 17 0 -7
BITMAP
006E80
07FFF4
1FD0FD
3F40FD
7F00B8
7F0000
7F0001
3F4009
2FD02C
0BFFF8
02FFD0
003800
00BD00
006F40
000740
00BF40
006D00
ENDCHAR
STARTCHAR egrave
ENCODING 232
SWIDTH 593 0
DWIDTH 12 0
BBX 12 18 0 -2
BITMAP
000100
002F00
001F40
000F80
000780
000100
000400
02FF90
0BFBF4
2F81FC
3F00BD
7FAABE
7FFFFE
3F0000
2F8004
0FFAB4
02FF80
001400
ENDCHAR
STARTCHAR eacute
ENCODING 233
SWIDTH 593 0
DWIDTH 12 0
BBX 12 18 0 -2
BITMAP
000400
000B80
000F80
001F00
002D00
000000
000400
02FF90
0BFBF4
2F81FC
3F00BD
7FAABE
7FFFFE
3F0000
2F8004
0FFAB4
02FF80
001400
ENDCHAR
STARTCHAR ecircumflex
ENCODING 234
SWIDTH 593 0
DWIDTH 12 0
BBX 12 18 0 -2
BITMAP
000400
001E00
007F40
00FFD0
02D1E0
000000
000400
02FF90
0BFBF4
2F81FC
3F00BD
7FAABE
7FFFFE
3F0000
2F8004
0FFAB4
02FF80
001400
ENDCHAR
STARTCHAR edieresis
ENCODING 235
SWIDTH 593 0
DWIDTH 12 0
BBX 12 15 0 -2
BITMAP
00A1D0
01F2E0
005040
000400
02FF90
0BFBF4
2F81FC
3F00BD
7FAABE
7FFFFE
3F0000
2F8004
0FFAB4
02FF80
001400
ENDCHAR
STARTCHAR igrave
ENCODING 236
SWIDTH 393 0
DWIDTH 8 0
BBX 9 18 0 0
BITMAP
004000
0BC000
07D000
03E000
01E000
004000
000000
555400
2FF400
03F400
02F400
02F400
02F400
02F000
02F000
02F000
0BF800
6FFF40
ENDCHAR
STARTCHAR iacute
ENCODING 237
SWIDTH 393 0
DWIDTH 8 0
BBX 9 18 0 0
BITMAP
001000
00B800
00F800
01F400
01E000
000000
000000
555400
2FF400
03F400
02F400
02F400
02F400
02F000
02F000
02F000
0BF800
6FFF40
ENDCHAR
STARTCHAR icircumflex
ENCODING 238
SWIDTH 393 0
DWIDTH 8 0
BBX 9 18 0 0
BITMAP
004000
01E000
07F400
0FFD00
2D1F00
000000
000000
555400
2FF400
03F400
02F400
02F400
02F400
02F000
02F000
02F000
0BF800
6FFF40
ENDCHAR
STARTCHAR idieresis
ENCODING 239
SWIDTH 393 0
DWIDTH 8 0
BBX 9 15 0 0
BITMAP
0A1E00
0F5F00
050500
000000
555400
2FF400
03F400
02F400
02F400
02F400
02F000
02F000
02F000
0BF800
6FFF40
ENDCHAR
STARTCHAR eth
ENCODING 240
SWIDTH 672 0
DWIDTH 13 0
BBX 14 18 0 -2
BITMAP
06400600
00B42F40
001EFD00
001FE000
00BFF400
02F9FC00
00A07E00
00003F40
01AAAF80
1FFFFFC0
7F807FD0
FD001FD0
FC000BD0
FC000BD0
FD000FC0
7F402F40
1FEAFD00
01BF9000
ENDCHAR
STARTCHAR ntilde
ENCODING 241
SWIDTH 643 0
DWIDTH 13 0
BBX 16 15 -2 1
BITMAP
00014040
000BFB40
000BFF40
00041900
00000000
016A1900
6FFFFFD0
01FFABF0
00BE02F4
007D01F4
007D01F4
003D01F0
00BE01F0
06AA86F4
00006AA9
ENDCHAR
STARTCHAR ograve
ENCODING 242
SWIDTH 705 0
DWIDTH 14 0
BBX 14 16 0 0
BITMAP
00010000
001F4000
000FC000
0007D000
0003D000
00010000
00565000
07FFFE00
2FD06F80
7F000FD0
BE0007E0
BD0007F0
BE000BE0
3F401FD0
1FE6BF40
02FFE400
ENDCHAR
STARTCHAR oacute
ENCODING 243
SWIDTH 705 0
DWIDTH 14 0
BBX 14 16 0 0
BITMAP
00010000
0007D000
000BD000
000F8000
000B0000
00000000
00565000
07FFFE00
2FD06F80
7F000FD0
BE0007E0
BD0007F0
BE000BE0
3F401FD0
1FE6BF40
02FFE400
ENDCHAR
STARTCHAR ocircumflex
ENCODING 244
SWIDTH 705 0
DWIDTH 14 0
BBX 14 16 0 0
BITMAP
00010000
000B4000
001FD000
007FF000
00E47800
00000000
00565000
07FFFE00
2FD06F80
7F000FD0
BE0007E0
BD0007F0
BE000BE0
3F401FD0
1FE6BF40
02FFE400
ENDCHAR
STARTCHAR otilde
ENCODING 245
SWIDTH 705 0
DWIDTH 14 0
BBX 14 15 0 0
BITMAP
00140400
00BFB800
00BFF800
00419000
00000000
00565000
07FFFE00
2FD06F80
7F000FD0
BE0007E0
BD0007F0
BE000BE0
3F401FD0
1FE6BF40
02FFE400
ENDCHAR
STARTCHAR odieresis
ENCODING 246
SWIDTH 705 0
DWIDTH 14 0
BBX 14 14 0 0
BITMAP
0078B400
007CF400
00145000
00000000
00565000
07FFFE00
2FD06F80
7F000FD0
BE0007E0
BD0007F0
BE000BE0
3F401FD0
1FE6BF40
02FFE400
ENDCHAR
STARTCHAR divide
ENCODING 247
SWIDTH 504 0
DWIDTH 10 0
BBX 10 12 0 0
BITMAP
005000
01FC00
02FD00
01B800
000000
BFFFA0
BFFFF0
AAAA90
000000
01F800
03FC00
01F800
ENDCHAR
STARTCHAR oslash
ENCODING 248
SWIDTH 705 0
DWIDTH 14 0
BBX 14 15 0 -3
BITMAP
00001D00
00002F40
0056BE00
07FFFE00
2FD2FF80
7F03FFD0
BE0BD7E0
BD1F87F0
BE3F0BE0
3FBD1FD0
1FFEBF40
02FFE400
07E00000
07C00000
01400000
ENDCHAR
STARTCHAR ugrave
ENCODING 249
SWIDTH 614 0
DWIDTH 12 0
BBX 16 18 -2 -1
BITMAP
00014000
000BC000
000BD000
0003E000
0002E000
00000000
00000000
6AF456A0
0BF42FF0
02F407E0
02F407E0
02F007D0
02F007D0
02F007C0
02F40BC0
00FEBFC0
007FFBF9
00014694
ENDCHAR
STARTCHAR uacute
ENCODING 250
SWIDTH 614 0
DWIDTH 12 0
BBX 16 17 -2 -1
BITMAP
00004000
0000F400
0001F400
0002F000
0002D000
00000000
6AF456A0
0BF42FF0
02F407E0
02F407E0
02F007D0
02F007D0
02F007C0
02F40BC0
00FEBFC0
007FFBF9
00014694
ENDCHAR
STARTCHAR ucircumflex
ENCODING 251
SWIDTH 614 0
DWIDTH 12 0
BBX 16 18 -2 -1
BITMAP
00004000
0002D000
0007F400
001FFC00
00391E00
00000000
00000000
6AF456A0
0BF42FF0
02F407E0
02F407E0
02F007D0
02F007D0
02F007C0
02F40BC0
00FEBFC0
007FFBF9
00014694
ENDCHAR
STARTCHAR udieresis
ENCODING 252
SWIDTH 614 0
DWIDTH 12 0
BBX 16 15 -2 -1
BITMAP
002D2800
003D7C00
00141400
00000000
6AF456A0
0BF42FF0
02F407E0
02F407E0
02F007D0
02F007D0
02F007C0
02F40BC0
00FEBFC0
007FFBF9
00014694
ENDCHAR
STARTCHAR yacute
ENCODING 253
SWIDTH 655 0
DWIDTH 13 0
BBX 14 26 -1 -9
BITMAP
00010000
0003D000
0007D000
000BC000
000B4000
00000000
50000000
2E42A940
0FF47FD0
0BF00FD0
0BE00FD0
0FE00FD0
1FD00FD0
1FD00FD0
0FF96FD0
07FFFFD0
006A5FC0
00000FC0
00000FC0
00001FC0
06401FC0
0FC02F80
0F803F40
0F80BE00
03FBFC00
00AF9000
ENDCHAR
STARTCHAR thorn
ENCODING 254
SWIDTH 734 0
DWIDTH 15 0
BBX 16 23 -1 -9
BITMAP
AAA80000
1BFD0000
01FD0000
00FD0000
00FD0000
00FD0000
00FD0000
00FD5500
00FFFFE0
00FE46FC
00FD00BE
00FD003E
00FD007F
00FD00BE
00FE46FC
00BFFFF4
00BD6A40
00BD0000
00BD0000
00BD0000
01FE4000
1BFFE400
55000000
ENDCHAR
STARTCHAR ydieresis
ENCODING 255
SWIDTH 655 0
DWIDTH 13 0
BBX 14 24 -1 -9
BITMAP
00B4A000
00F5F000
00505000
00000000
50000000
2E42A940
0FF47FD0
0BF00FD0
0BE00FD0
0FE00FD0
1FD00FD0
1FD00FD0
0FF96FD0
07FFFFD0
006A5FC0
00000FC0
00000FC0
00001FC0
06401FC0
0FC02F80
0F803F40
0F80BE00
03FBFC00
00AF9000
ENDCHAR
STARTCHAR dotlessi
ENCODING 305
SWIDTH 393 0
DWIDTH 8 0
BBX 9 11 0 0
BITMAP
555400
2FF400
03F400
02F400
02F400
02F400
02F000
02F000
02F000
0BF800
6FFF40
ENDCHAR
STARTCHAR Lslash
ENCODING 321
SWIDTH 713 0
DWIDTH 14 0
BBX 15 16 -1 0
BITMAP
AAAAA900
1BFFD000
00FF0000
00FF0000
00FE1000
00BFF400
00BFF800
02FFE400
1FFF0008
1FFE000C
09BE001C
007E002C
007E003C
00BE55BC
07FFFFFC
6AAA5554
ENDCHAR
STARTCHAR lslash
ENCODING 322
SWIDTH 365 0
DWIDTH 7 0
BBX 11 19 -2 -2
BITMAP
6FFE00
01FE00
00FE00
00FE00
00BE00
00BE60
00BFF4
00BFE4
1BFE40
2FFD00
1EBD00
047D00
007D00
007D00
007D00
007C00
00BE00
06FF90
055550
ENDCHAR
STARTCHAR OE
ENCODING 338
SWIDTH 1195 0
DWIDTH 24 0
BBX 23 16 0 -1
BITMAP
000000000154
00015AABFFFC
00006FFFAABC
000501FE003C
06FFE5FE041C
1FE5FEFE080C
7F403FFE0C04
BE001FFD2C00
BD000FFFFC00
BD001FFFFC04
BE001FFD2C18
3F403FFD0C28
1FE6FDFD0438
02FFE1FD5578
00001BFFFFF8
000055555554
ENDCHAR
STARTCHAR oe
ENCODING 339
SWIDTH 1087 0
DWIDTH 22 0
BBX 22 11 0 -2
BITMAP
06FFE01AA400
2FE6FDFFFE00
7F007FF46F80
BD002FE00FC0
BC002FE55BD0
BD002FFFFFE0
7E003FE55540
1F96FFE00040
06FFE2FEAB00
0004007FF800
000000010000
ENDCHAR
STARTCHAR Scaron
ENCODING 352
SWIDTH 661 0
DWIDTH 13 0
BBX 13 22 0 -2
BITMAP
00401000
01E1F000
00BFD000
003F4000
000E0000
00000000
00000040
06FF9180
2FEAFF80
7E002F40
BE000740
BF940240
7FFF9000
1FFFFD00
01BFFF40
1006FFC0
24007FC0
2D002F80
2F91BF40
36FFF900
205A4000
10000000
ENDCHAR
STARTCHAR scaron
ENCODING 353
SWIDTH 533 0
DWIDTH 11 0
BBX 11 20 0 -1
BITMAP
010040
0787C0
02FF40
00FD00
007800
000000
000000
02A410
1FFF70
7D07F0
BD00F0
7F9020
2FFE10
0BFFD0
11BFF4
7407F8
7D01F8
7FEBF0
52BE40
400000
ENDCHAR
STARTCHAR Ydieresis
ENCODING 376
SWIDTH 848 0
DWIDTH 17 0
BBX 20 19 -2 -2
BITMAP
0000B4A000
0000F5F000
0000505000
0000000000
6ABFD00000
1BFF006AA5
007F801FE4
001FD00B40
000BF42C00
0002FDB400
0000BFD000
00003F4000
00002F4000
00002F4000
00002F4000
00002F8000
00003F8000
0002FFF900
0005555540
ENDCHAR
STARTCHAR Zcaron
ENCODING 381
SWIDTH 685 0
DWIDTH 14 0
BBX 14 19 0 0
BITMAP
00401000
00F4B800
007FE000
001FC000
000B4000
00010000
00000150
BFFFFFE0
7FEAFFC0
3C00FF40
2803FD00
240BF800
142FF010
007FC050
01FF40D0
07FE01D0
0FFD03D0
3FFFFFD0
6AAAAA80
ENDCHAR
STARTCHAR zcaron
ENCODING 382
SWIDTH 549 0
DWIDTH 11 0
BBX 12 19 0 -1
BITMAP
010040
0796D0
01FF40
00BE00
003800
000000
000000
155555
BFFFFC
7D5BF4
780FE0
343F80
20BF00
12FD14
07F824
0FF038
3FFAB8
6BFFF8
000054
ENDCHAR
STARTCHAR circumflex
ENCODING 710
SWIDTH 714 0
DWIDTH 14 0
BBX 8 5 4 14
BITMAP
0140
03C0
0FE0
2FF8
782D
ENDCHAR
STARTCHAR caron
ENCODING 711
SWIDTH 714 0
DWIDTH 14 0
BBX 8 5 4 14
BITMAP
1004
797D
2FF4
0BE0
0380
ENDCHAR
STARTCHAR breve
ENCODING 728
SWIDTH 715 0
DWIDTH 14 0
BBX 6 5 5 14
BITMAP
4010
E5F0
BFD0
2F40
0400
ENDCHAR
STARTCHAR dotaccent
ENCODING 729
SWIDTH 708 0
DWIDTH 14 0
BBX 3 3 6 16
BITMAP
A0
F4
50
ENDCHAR
STARTCHAR ring
ENCODING 730
SWIDTH 704 0
DWIDTH 14 0
BBX 5 5 5 14
BITMAP
0500
3F80
72C0
3F80
1900
ENDCHAR
STARTCHAR ogonek
ENCODING 731
SWIDTH 988 0
DWIDTH 20 0
BBX 8 6 6 -3
BITMAP
2400
7400
B800
BE69
3FF8
0540
ENDCHAR
STARTCHAR tilde
ENCODING 732
SWIDTH 707 0
DWIDTH 14 0
BBX 7 4 4 14
BITMAP
1504
7FEC
7FFC
11A4
ENDCHAR
STARTCHAR hungarumlaut
ENCODING 733
SWIDTH 671 0
DWIDTH 13 0
BBX 7 5 4 15
BITMAP
1040
3DF8
7EF8
BAF0
B6D0
ENDCHAR
STARTCHAR endash
ENCODING 8211
SWIDTH 576 0
DWIDTH 12 0
BBX 10 3 1 6
BITMAP
ABFFD0
BFFFD0
BFFFD0
ENDCHAR
STARTCHAR emdash
ENCODING 8212
SWIDTH 993 0
DWIDTH 20 0
BBX 18 4 1 5
BITMAP
6AAAAAAA90
BFFFFFFFE0
BFFFFFFFE0
0000001540
ENDCHAR
STARTCHAR quoteleft
ENCODING 8216
SWIDTH 261 0
DWIDTH 5 0
BBX 5 7 0 8
BITMAP
0400
0B80
1F80
3F40
7F00
6E00
0500
ENDCHAR
STARTCHAR quoteright
ENCODING 8217
SWIDTH 301 0
DWIDTH 6 0
BBX 5 7 0 8
BITMAP
0400
0F80
1FC0
2F80
3F00
7D00
0400
ENDCHAR
STARTCHAR quotesinglbase
ENCODING 8218
SWIDTH 332 0
DWIDTH 7 0
BBX 5 7 0 -2
BITMAP
0400
0F80
1FC0
2F80
3F00
7D00
0400
ENDCHAR
STARTCHAR quotedblleft
ENCODING 8220
SWIDTH 477 0
DWIDTH 10 0
BBX 9 7 0 8
BITMAP
040100
0B8780
1F8FC0
3F6F80
7F7F40
6E2F00
050100
ENDCHAR
STARTCHAR quotedblright
ENCODING 8221
SWIDTH 477 0
DWIDTH 10 0
BBX 9 7 0 8
BITMAP
040400
1E4F40
2F9FC0
3F6F40
7E3F00
BC7D00
040400
ENDCHAR
STARTCHAR quotedblbase
ENCODING 8222
SWIDTH 477 0
DWIDTH 10 0
BBX 9 7 0 -2
BITMAP
040400
1E4F40
2F9FC0
3F6F40
7E3F00
BC7D00
040400
ENDCHAR
STARTCHAR dagger
ENCODING 8224
SWIDTH 487 0
DWIDTH 10 0
BBX 10 23 0 -6
BITMAP
01A800
02F800
02F800
02F800
01F800
7FFE80
BFFFD0
BFFFC0
01F800
01F800
01F800
01F400
01F400
01F400
01F400
01F400
01F400
01F400
01F400
01F400
01F400
00F400
00F400
ENDCHAR
STARTCHAR daggerdbl
ENCODING 8225
SWIDTH 497 0
DWIDTH 10 0
BBX 10 23 0 -6
BITMAP
01A800
02F800
02F800
02F800
01F800
7FFE80
BFFFD0
BFFFC0
01F800
01F800
6BFFD0
BFFFD0
6FFFD0
01F400
01F400
01F400
01F400
01F400
01F400
01F400
01F400
00F400
00F400
ENDCHAR
STARTCHAR bullet
ENCODING 8226
SWIDTH 275 0
DWIDTH 6 0
BBX 6 6 0 5
BITMAP
0500
7F80
BFD0
FFD0
BFD0
2F40
ENDCHAR
STARTCHAR ellipsis
ENCODING 8230
SWIDTH 787 0
DWIDTH 16 0
BBX 16 4 0 -2
BITMAP
19068064
BF0FE1FD
BF4FE1FD
290690A8
ENDCHAR
STARTCHAR perthousand
ENCODING 8240
SWIDTH 888 0
DWIDTH 18 0
BBX 19 17 0 -1
BITMAP
0000500000
1A40BC0000
7FD0F80000
F5F2F40000
F5F3F00000
BFD7D00000
1A4BC00000
000F800000
002F000000
003E000000
007D040100
00B8BF6FE0
00F5F7FDF4
02F2D2F8B8
03E1F7FDF4
07C0BF5FE0
0680040100
ENDCHAR
STARTCHAR guilsinglleft
ENCODING 8249
SWIDTH 234 0
DWIDTH 5 0
BBX 5 11 0 -1
BITMAP
0200
0740
0F00
2E00
7C00
BC00
7D00
1E00
0B40
0340
0100
ENDCHAR
STARTCHAR guilsinglright
ENCODING 8250
SWIDTH 223 0
DWIDTH 4 0
BBX 5 10 0 0
BITMAP
5000
B000
7800
3D00
1F40
1F40
2E00
3C00
B400
A000
ENDCHAR
STARTCHAR fraction
ENCODING 8260
SWIDTH 600 0
DWIDTH 12 0
BBX 14 20 -1 -3
BITMAP
00000500
00000F80
00002FD0
00007F80
0000BF40
0001FE00
0003FC00
000BF400
000FE000
002FC000
007F4000
00FF0000
01FD0000
03F80000
0BF00000
1FD00000
2F800000
7F400000
2E000000
04000000
ENDCHAR
STARTCHAR Euro
ENCODING 8364
SWIDTH 590 0
DWIDTH 12 0
BBX 13 12 -1 1
BITMAP
001BF800
00BEBE00
02F41F80
03E01F80
6BE94A40
BFFFC000
0BD00000
7FFFD040
57FAA080
02FD0740
00BFFE00
001FF400
ENDCHAR
STARTCHAR trademark
ENCODING 8482
SWIDTH 624 0
DWIDTH 12 0
BBX 13 9 0 6
BITMAP
08000000
18000000
B9000000
79000000
34AA9900
7429E700
70249300
76689740
2D019000
ENDCHAR
STARTCHAR minus
ENCODING 8722
SWIDTH 549 0
DWIDTH 11 0
BBX 11 4 0 5
BITMAP
6A9550
BFFFF8
BFFFF8
AAAAA4
ENDCHAR
STARTCHAR fi
ENCODING 64257
SWIDTH 757 0
DWIDTH 15 0
BBX 17 28 -1 -8
BITMAP
0000100000
000BFE4000
002FAFD000
007D03F400
00BC02F800
00F807F800
00F807F800
01F802E000
00FC000000
00FC000000
2FFFFFF800
2AFEABF800
00BD02F800
00BE02F800
007E01F400
007E01F400
007F01F400
003F01F400
003F07F800
003F6FFF40
002F400000
002F400000
101F400000
B81F400000
FC2F400000
B83E000000
3EFD000000
0BE4000000
ENDCHAR
STARTCHAR fl
ENCODING 64258
SWIDTH 776 0
DWIDTH 16 0
BBX 17 28 -1 -8
BITMAP
0000500000
000BFF4000
002F5FD000
007D07F000
00BC02F400
00F802F800
00F801FC00
01F801FC00
00FC01FC00
00FC01FC00
2FFFF5FC00
2AFEA5FC00
00BD01F800
00BE00F800
007E00F800
007E00F800
007F00F800
003F00F800
003F00F800
003F41F800
002F4BFF40
002F555540
101F400000
B81F400000
FC2F400000
B83E000000
3EFD000000
0BE4000000
ENDCHAR
STARTCHAR .notdef
ENCODING -1
SWIDTH 320 0
DWIDTH 6 0
BBX 1 1 0 0
BITMAP
00
ENDCHAR
ENDFONT
